# xmcd
#
# Track frame offsets:
#        150
#        18777
#        36702
#        55272
#        73302
#        91460
#        108592
#        129610
#        147565
#        165357
#        183945
#        204325
#
# Disc length: 2985 seconds
#
# Revision: 0
# Processed by: cddbd v1.5.1PL2 Copyright (c) Steve Scherf et al.
# Submitted via: ExactAudioCopy v0.95a5
#
DISCID=af0ba70c
DTITLE=Various Artist - Best Hits "S.R.M."  '96-'97
DYEAR=1996
DGENRE=Rock
TTITLE0=Junior Palmer - Your Song
TTITLE1=Chevelle Franklyn - I Need To Be In Love
TTITLE2=Dennis Brown - Just The Way You Are
TTITLE3=Errol Bonnick - First Of May
TTITLE4=Nikki Tucker - To Love You More
TTITLE5=Skatta - We're All Alone
TTITLE6=Teiston Palma - Baby, I Love Your Way
TTITLE7=Skatta - Sunshine, Moonlight
TTITLE8=Erica Newell - Let's Talk About It
TTITLE9=J.C. Lodge - Suki [Worldwide Version]
TTITLE10=Richie Stephens - All Night Long
TTITLE11=Lebancolela and Sugar Black - Yesterday Once More
EXTD=
EXTT0=
EXTT1=
EXTT2=
EXTT3=
EXTT4=
EXTT5=
EXTT6=
EXTT7=
EXTT8=
EXTT9=
EXTT10=
EXTT11=
PLAYORDER=
